PathFileType	4	(X/Y/Z)	/Users/itak/Documents/Research/Walk-IL/dataset/trc/00090_00006.trc
DataRate	CameraRate	NumFrames	NumMarkers	Units	OrigDataRate	OrigDataStartFrame	OrigNumFrames
100.000000	100.000000	4	56	mm	100.000000	384	513
Frame#	Time	RPSI			LPSI			L3			STRN			T10			C7			CLAV			RBAK			LBAK			LSHO			LUPA			LAEL			LAOL			LWTS			LWPS			LFRA			LIFD			LHPS			LHTS			RSHO			RUPA			RAEL			RAOL			RWTS			RWPS			RFRA			RIFD			RHPS			RBHD			LFHD			RFHD			LBHD			LHIP			RHIP			RASI			LASI			LKNE			LTHI			LANK			LTIP			LTOE			LMT1			LMT5			LHEE			RKNE			RTHI			RANK			RTIP			RTOE			RMT1			RMT5			RHEE			RHTS			*53			*54			*55			
		X1	Y1	Z1	X2	Y2	Z2	X3	Y3	Z3	X4	Y4	Z4	X5	Y5	Z5	X6	Y6	Z6	X7	Y7	Z7	X8	Y8	Z8	X9	Y9	Z9	X10	Y10	Z10	X11	Y11	Z11	X12	Y12	Z12	X13	Y13	Z13	X14	Y14	Z14	X15	Y15	Z15	X16	Y16	Z16	X17	Y17	Z17	X18	Y18	Z18	X19	Y19	Z19	X20	Y20	Z20	X21	Y21	Z21	X22	Y22	Z22	X23	Y23	Z23	X24	Y24	Z24	X25	Y25	Z25	X26	Y26	Z26	X27	Y27	Z27	X28	Y28	Z28	X29	Y29	Z29	X30	Y30	Z30	X31	Y31	Z31	X32	Y32	Z32	X33	Y33	Z33	X34	Y34	Z34	X35	Y35	Z35	X36	Y36	Z36	X37	Y37	Z37	X38	Y38	Z38	X39	Y39	Z39	X40	Y40	Z40	X41	Y41	Z41	X42	Y42	Z42	X43	Y43	Z43	X44	Y44	Z44	X45	Y45	Z45	X46	Y46	Z46	X47	Y47	Z47	X48	Y48	Z48	X49	Y49	Z49	X50	Y50	Z50	X51	Y51	Z51	X52	Y52	Z52	X53	Y53	Z53	X54	Y54	Z54	X55	Y55	Z55	X56	Y56	Z56	

385	3.84	-64.91427612304688	1004.797119140625	851.8229370117188	108.1899108886719	989.7780151367188	821.0034790039062	25.81207656860352	1055.98095703125	835.0678100585938	69.77193450927734	1263.552490234375	1075.725708007812	27.70055770874023	1189.902709960938	812.1467895507812	43.180908203125	1458.911010742188	860.5314331054688	68.91691589355469	1377.037231445312	1041.6171875	-43.92227172851562	1318.997802734375	814.2949829101562	138.3192291259766	1418.690551757812	823.7189331054688	227.2577972412109	1424.4072265625	912.9226684570312	296.9391784667969	1296.177124023438	880.4793090820312	322.1161193847656	1082.897094726562	891.6072998046875	221.9573974609375	1067.33251953125	853.205810546875	292.8370666503906	840.42236328125	988.869140625	333.3850402832031	832.659423828125	915.3873901367188	336.3445739746094	974.3450317382812	905.1358642578125	278.5469055175781	656.5328369140625	999.4493408203125	339.9959411621094	751.1258544921875	945.7089233398438	304.6359252929688	758.489990234375	1006.765380859375	-121.3006973266602	1423.918579101562	951.9502563476562	-186.9893646240234	1354.70068359375	951.8160400390625	-226.6282501220703	1088.436645507812	939.6004028320312	-129.9138641357422	1067.205322265625	941.5330200195312	-146.4195861816406	877.4952392578125	1123.812133789062	-201.7002868652344	839.4518432617188	1068.697265625	-228.5991058349609	1007.5390625	966.56396484375	-102.2093887329102	702.3230590820312	1167.984375	-190.4984741210938	763.9301147460938	1128.188720703125	-25.52191352844238	1617.843872070312	893.589111328125	104.4121932983398	1690.16357421875	1058.9462890625	-19.97531890869141	1671.281005859375	1056.556274414062	109.8171920776367	1645.2353515625	886.0791015625	211.2861175537109	933.5327758789062	917.6121826171875	-136.5555877685547	938.3203735351562	928.20458984375	-101.0477142333984	957.3455200195312	1050.0009765625	167.7767486572266	951.161865234375	1033.998901367188	174.9144439697266	517.3605346679688	1140.136108398438	213.3933563232422	634.1221923828125	1059.771850585938	222.6265563964844	48.4075927734375	1185.001831054688	210.9313354492188	274.6795349121094	1162.743041992188	184.3811798095703	98.083984375	1377.940185546875	139.857177734375	80.11068725585938	1326.42431640625	243.7032470703125	62.53053665161133	1289.786499023438	154.5065612792969	36.60419464111328	1125.08203125	-81.63834381103516	494.1183166503906	946.4108276367188	-122.4076995849609	758.4486083984375	996.17919921875	-111.779182434082	59.56484985351562	720.4255981445312	-87.77635192871094	373.102783203125	897.4181518554688	4.765867710113525	39.88648223876953	902.7465209960938	17.9966983795166	45.89212036132812	832.4550170898438	-80.39030456542969	48.95879364013672	840.1460571289062	-78.29853820800781	70.51248931884766	656.6941528320312	-131.9806976318359	787.742431640625	1173.633422851562	nan	nan	nan	nan	nan	nan	nan	nan	nan	
386	3.85	-62.01664352416992	1005.500671386719	858.956787109375	111.1071395874023	991.0494995117188	827.9779663085938	28.81819534301758	1056.4521484375	842.3074951171875	72.76676940917969	1264.2197265625	1082.800659179688	30.98711395263672	1190.349975585938	818.9663696289062	46.47296905517578	1459.423583984375	867.3515625	71.82754516601562	1377.676147460938	1048.610595703125	-40.50258255004883	1319.417358398438	821.005126953125	141.8106384277344	1419.2236328125	830.8114624023438	230.4918060302734	1425.097290039062	920.28857421875	300.4657592773438	1296.850219726562	888.4386596679688	325.9406433105469	1083.623901367188	900.3435668945312	226.0657958984375	1067.805786132812	861.411376953125	296.4346618652344	841.357421875	997.99951171875	337.4342346191406	833.4442138671875	924.73095703125	340.2378234863281	975.123779296875	914.1898803710938	282.6082153320312	657.5057373046875	1009.112487792969	344.0435180664062	752.0476684570312	955.3533935546875	308.3865051269531	759.5288696289062	1016.2177734375	-118.201545715332	1424.284057617188	958.5090942382812	-183.7331085205078	1354.837646484375	958.3211669921875	-222.5957641601562	1088.5439453125	945.9868774414062	-125.2787017822266	1067.418212890625	948.6018676757812	-143.1988372802734	876.8621215820312	1129.614501953125	-198.5016937255859	839.1519775390625	1074.120239257812	-224.6217041015625	1007.714721679688	972.7021484375	-99.64019775390625	701.5577392578125	1173.466064453125	-187.5678253173828	763.4147338867188	1133.445434570312	-22.50614166259766	1618.260131835938	899.9190673828125	107.0256042480469	1691.018798828125	1065.383544921875	-17.36038017272949	1672.013427734375	1062.777099609375	112.8382797241211	1645.757202148438	892.6343994140625	214.0975341796875	934.580322265625	924.570068359375	-133.5942230224609	938.6048583984375	935.1748046875	-97.90396881103516	957.442626953125	1056.8447265625	170.8483734130859	951.8797607421875	1040.975219726562	175.9888763427734	517.5791625976562	1146.020874023438	215.1542816162109	634.6463012695312	1066.157470703125	222.7160949707031	48.09340667724609	1186.343505859375	211.4467620849609	274.433349609375	1167.3466796875	183.7533721923828	92.80232238769531	1380.746459960938	139.4591827392578	76.11167907714844	1328.529418945312	243.3658752441406	59.62557983398438	1291.58837890625	154.6788177490234	37.77385330200195	1125.994873046875	-78.28028869628906	494.1358032226562	953.68017578125	-119.1129150390625	758.5415649414062	1003.062438964844	-111.6304931640625	62.70634078979492	721.4842529296875	-85.5477294921875	373.49365234375	903.520263671875	4.835751056671143	39.86532974243164	902.8314819335938	17.97715187072754	46.44065093994141	832.9608154296875	-80.4151611328125	49.46173858642578	840.931396484375	-78.04454040527344	74.73009490966797	658.0106811523438	-129.3167724609375	787.0299682617188	1179.214233398438	nan	nan	nan	nan	nan	nan	nan	nan	nan	
387	3.86	-59.18408966064453	1006.468811035156	865.997802734375	113.9291229248047	992.4907836914062	834.864990234375	31.73314094543457	1057.173706054688	849.474853515625	75.76761627197266	1265.09423828125	1089.80810546875	34.12847900390625	1191.029418945312	825.7261962890625	49.71557235717773	1460.135375976562	874.1636352539062	74.74041748046875	1378.526000976562	1055.56005859375	-37.18193054199219	1320.081420898438	827.7044067382812	145.2428283691406	1420.00439453125	837.8756103515625	233.6716613769531	1426.068603515625	927.6224975585938	303.9644775390625	1297.827026367188	896.3882446289062	329.6760864257812	1084.67724609375	909.0934448242188	230.1203460693359	1068.590209960938	869.6310424804688	299.9963073730469	842.6087036132812	1007.159240722656	341.4872741699219	834.572509765625	934.137451171875	344.08251953125	976.2356567382812	923.287353515625	286.6269226074219	658.7630004882812	1018.694458007812	348.0884399414062	753.3012084960938	965.0317993164062	312.0563049316406	760.8612670898438	1025.670043945312	-115.1226654052734	1424.930908203125	965.079345703125	-180.5209655761719	1355.27783203125	964.8717651367188	-218.49560546875	1088.9638671875	952.370849609375	-120.457649230957	1067.955322265625	955.7854614257812	-140.1007995605469	876.322998046875	1135.2431640625	-195.4429473876953	839.100341796875	1079.33544921875	-220.5911254882812	1008.194519042969	978.7803955078125	-97.34236907958984	700.7838134765625	1178.539672851562	-184.8482208251953	763.051513671875	1138.399536132812	-19.51444053649902	1618.878051757812	906.2223510742188	109.5897674560547	1692.048461914062	1071.824829101562	-14.79111480712891	1672.918212890625	1068.991455078125	115.8279495239258	1646.465087890625	899.1932373046875	216.8737182617188	935.7909545898438	931.4060668945312	-130.6855010986328	939.1398315429688	942.064208984375	-94.71592712402344	957.7728881835938	1063.564086914062	173.9390716552734	952.7962036132812	1047.814697265625	177.3034973144531	517.8949584960938	1151.759521484375	216.9047241210938	635.41455078125	1072.501342773438	222.9471435546875	47.75089645385742	1187.464965820312	212.2034454345703	274.212890625	1171.531372070312	183.5743560791016	87.97614288330078	1383.094116210938	139.42578125	72.56129455566406	1330.332763671875	243.3056488037109	56.87288284301758	1293.033447265625	154.8838500976562	38.85418319702148	1126.83203125	-74.83196258544922	494.2403259277344	961.442138671875	-115.7825088500977	758.8165893554688	1010.014099121094	-111.2789077758789	66.205810546875	722.6632080078125	-83.34551239013672	374.041259765625	910.0093994140625	4.907828807830811	39.86006546020508	902.9172973632812	18.01369667053223	47.03632736206055	833.561279296875	-80.39785766601562	50.06532669067383	841.7785034179688	-77.4542236328125	79.4281005859375	659.5545043945312	-126.8224639892578	786.3304443359375	1184.513427734375	nan	nan	nan	nan	nan	nan	nan	nan	nan	
388	3.87	-56.36674880981445	1007.650207519531	872.8980712890625	116.7147598266602	994.0142211914062	841.67333984375	34.6090087890625	1058.109130859375	856.5570678710938	78.75444030761719	1266.133911132812	1096.736206054688	37.15611267089844	1191.911499023438	832.4332275390625	52.90444564819336	1461.013061523438	880.9567260742188	77.64512634277344	1379.5498046875	1062.453857421875	-33.95744705200195	1320.95458984375	834.383056640625	148.6092376708984	1420.995971679688	844.9073486328125	236.7918701171875	1427.289428710938	934.921875	307.435546875	1299.086181640625	904.3131103515625	333.3295288085938	1086.030883789062	917.8214111328125	234.1239776611328	1069.659423828125	877.840576171875	303.5337219238281	844.1635131835938	1016.35107421875	345.534912109375	836.0238037109375	943.6048583984375	347.8861083984375	977.65576171875	932.4041748046875	290.581787109375	660.2906494140625	1028.207763671875	352.1213684082031	754.8644409179688	974.7442626953125	315.6484680175781	762.4705200195312	1035.126098632812	-112.0696792602539	1425.833129882812	971.6443481445312	-177.36376953125	1356.003051757812	971.4471435546875	-214.3560333251953	1089.6767578125	958.72412109375	-115.5811004638672	1068.805541992188	962.9854125976562	-137.1328277587891	875.9009399414062	1140.71240234375	-192.4983367919922	839.2988891601562	1084.363647460938	-216.5309753417969	1008.955871582031	984.7762451171875	-95.30014801025391	700.0054321289062	1183.194580078125	-182.3346557617188	762.8495483398438	1143.052368164062	-16.55437850952148	1619.666015625	912.4931030273438	112.1059875488281	1693.212890625	1078.263061523438	-12.26294136047363	1673.963989257812	1075.193969726562	118.7770919799805	1647.320190429688	905.7440795898438	219.6399230957031	937.0828857421875	938.1527099609375	-127.8033752441406	939.9041748046875	948.8196411132812	-91.51503753662109	958.3260498046875	1070.123901367188	177.0241088867188	953.845947265625	1054.544067382812	178.8774108886719	518.2362060546875	1157.318481445312	218.7057495117188	636.3173217773438	1078.752563476562	223.3089141845703	47.36383438110352	1188.3720703125	213.1953125	273.9841918945312	1175.265747070312	183.8675537109375	83.58987426757812	1385.024291992188	139.774658203125	69.45020294189453	1331.879272460938	243.5400848388672	54.27391052246094	1294.134399414062	155.1127319335938	39.8190803527832	1127.59716796875	-71.37394714355469	494.40673828125	969.7146606445312	-112.4725494384766	759.2630615234375	1017.005004882812	-110.6942443847656	70.03395843505859	723.9772338867188	-81.20970916748047	374.7445678710938	916.8779907226562	4.975482940673828	39.86814117431641	903.0045166015625	18.10485458374023	47.6800651550293	834.2647094726562	-80.32595825195312	50.75839233398438	842.6991577148438	-76.48544311523438	84.59591674804688	661.3630981445312	-124.4790496826172	785.6493530273438	1189.533447265625	nan	nan	nan	nan	nan	nan	nan	nan	nan	
